<?xml version="1.0" encoding="utf-8"?>
<!-- Generator: Adobe Illustrator 16.0.0, SVG Export Plug-In . SVG Version: 6.00 Build 0)  -->
<!DOCTYPE svg PUBLIC "-//W3C//DTD SVG 1.1//EN" "http://www.w3.org/Graphics/SVG/1.1/DTD/svg11.dtd">
<svg version="1.1" xmlns="http://www.w3.org/2000/svg" xmlns:xlink="http://www.w3.org/1999/xlink" x="0px" y="0px" width="668px"
	 height="478px" viewBox="0 0 668 478" enable-background="new 0 0 668 478" xml:space="preserve">
<g id="Layer_1">
	<g id="Layer_2" display="none">
		
			<image display="inline" overflow="visible" enable-background="new    " width="1024" height="771" xlink:href="C:\Users\Imke\Desktop\Warum-ein-Hoersystem-muede.JPG"  transform="matrix(0.9996 0 0 0.9996 1094.8936 0.0283)">
		</image>
		<path display="inline" fill="none" stroke="#3D967D" stroke-width="2" stroke-miterlimit="10" d="M847.84,572.056l-259.287-1.953
			c0,0-4.125,2.604-7.165,4.994c-3.04,2.389-9.554,2.604-10.205,4.561c-0.65,1.953,3.955,0.765-1.52,12.594
			c-6.08,13.137-25.84,15.417-25.84,15.417s-33.331-3.69-37.566-6.949c-2.691-2.071-4.775-4.342-5.645-5.211
			c-0.869-0.868,2.389-0.184,2.389-0.184c1.375,2.035,3.085,3.735,5.527,4.616c11.127,4.008,22.651,5.953,36.06,6.688
			c2.63-0.762,6.946-1.551,10.858-3.267c5.116-2.24,9.89-5.355,12.711-10.423c1.02-1.833,1.974-5.497,2.107-7.648
			c0.1-1.565-0.892-2.479-2.853-1.938c-1.9,0.527-3.955,0.949-5.894,0.801c-5.048-0.396-10.092-1-15.095-1.785
			c-2.912-0.457-5.729-1.495-8.624-2.103c-0.663-0.139-1.61,0.261-2.192,0.714c-3.756,2.907-7.947,4.938-12.569,5.843
			c-6.193,1.216-12.443,2.15-18.676,3.149c-1.052,0.168-1.797,0.324-2.815,0.977c-2.58,1.65-20.913,11.509-38.066,11.943
			c-17.154,0.434-14.767-8.471-18.893-7.168c-4.125,1.304-12.377-5.861-12.377-5.861c-6.297-3.257-1.465-14.386-1.465-14.386
			c0.813,1.302,1.629,4.887,1.199,8.81c-0.228,1.207-0.243,2.771,0.35,3.755c1.511,2.503,7.871,4.451,10.809,3.617
			c0.077-0.972,0.157-1.951,0.235-2.932c0.834,0.497,1.162,1.046,1.456,1.606c2.5,4.802,6.138,7.998,11.583,9.327
			c11.726,2.857,22.621,0.688,33.012-4.916c2.204-1.189,4.18-2.803,6.257-4.222c-0.073-0.227-0.146-0.45-0.219-0.677
			c-1.408-0.285-2.814-0.57-4.223-0.854c0.565-0.57,1.039-0.683,1.517-0.729c7.424-0.721,14.86-1.338,22.271-2.175
			c8.649-0.976,16.416-4.084,22.862-10.117c0.312-0.286,0.795-0.39,1.359-0.655c-0.928,2.87-0.616,3.438,2.106,4.217
			c0.477,0.138,0.965,0.273,1.46,0.326c5.795,0.611,11.581,1.284,17.387,1.78c3.471,0.298,7.137,0.101,9.55-2.63
			c1.879-2.127,4.039-2.208,6.388-2.572c4.139-0.642,7.188-2.965,9.704-6.299c-1.896-1.117-3.495-2.061-5.092-3.002
			c0.784-0.388,1.441-0.461,2.022-0.282c3.499,1.074,5.854-0.444,7.955-3.117c4.894-6.227,3.992-13.035,2.261-19.964
			c-0.039-0.158-0.393-0.238-0.616-0.368c-3.313,2.695-6.636,5.294-11.224,4.805c2.985-1.965,6.191-3.531,9.108-5.519
			c3.122-2.127,4.635-5.16,3.605-9.091c-0.483-1.849-0.787-3.747-1.318-5.581c-0.888-3.053-2.636-5.59-4.809-8.229
			c-1.153,2.083-2.063,3.735-2.977,5.387c-0.302-0.124-0.604-0.248-0.904-0.371c1.796-4.597,2.522-9.231,1.612-14.125
			c-0.965-5.193-4.144-8.396-8.436-11.055c-2.232,6.521-2.859,7.407-5.309,7.471c0.178-0.421,0.263-0.838,0.497-1.135
			c3.142-3.979,3.726-8.627,2.564-13.258c-0.762-3.033-2.027-6.949-4.34-8.309c-2.392-1.405-3.291-3.05-4.214-5.104
			c-1.48-3.291-4.313-4.555-7.582-5.571c-0.265,1.04-0.466,1.835-0.816,3.217c-0.457-1.012-0.751-1.417-0.825-1.858
			c-0.729-4.466-3.602-7.239-7.425-9.094c-2.306-1.119-4.762-1.987-7.229-2.696c-1.661-0.479-2.664-1.1-3.199-2.921
			c-0.39-1.326-1.477-2.779-2.661-3.481c-5.748-3.397-11.558-6.864-18.713-4.178c-0.906,0.34-1.932,0.37-2.897,0.543
			c-0.074-0.226-0.148-0.452-0.226-0.677c1.251-0.793,2.499-1.584,3.843-2.438c-8.738-5.658-26.844-9.043-32.933-2.169
			c0.972,1.208,1.948,2.418,2.924,3.63c-0.19,0.203-0.38,0.409-0.57,0.614c-0.667-0.376-1.354-0.719-1.999-1.129
			c-5.041-3.213-10.605-5.259-16.516-4.923c-9.636,0.549-19.267,1.629-28.479,4.814c-4.183,1.445-8.24,3.149-10.979,6.986
			c-0.487,0.684-1.65,0.953-2.553,1.264c-4.867,1.66-9.969,2.822-14.57,5.03c-5.009,2.4-8.35,6.552-8.554,12.554
			c-0.034,1.01-0.326,2.009-0.497,3.012c-0.238,0.089-0.475,0.175-0.713,0.262c-0.197-0.365-0.474-0.708-0.581-1.098
			c-0.65-2.36-2.053-1.884-3.593-0.998c-2.021,1.16-4.069,2.272-6.071,3.466c-3.88,2.313-6.685,5.582-7.821,9.961
			c-0.875,3.365-1.286,6.854-1.881,10.292c-0.541,3.134-0.378,6.127,1.829,8.692c0.055,0.063-0.086,0.291-0.227,0.72
			c-2.753-0.925-3.742,1.192-4.823,3.071c-3.722,6.464-3.595,13.278-1.179,20.016c0.999,2.787,2.319,6.133,6.808,5.181
			c-0.242,0.597-0.314,0.915-0.482,1.17c-4.152,6.304-3.106,10.76,3.351,14.762c4.995,3.096,10.231,5.553,16.048,6.645
			c6.94,1.306,13.824,2.963,20.974,0.991c2.17-0.597,3.445-1.504,4.246-3.589c2.142-5.573,5.912-9.785,11.22-12.564
			c0.874-0.456,1.855-0.711,2.787-1.057c-0.392,1.011-1.012,1.505-1.663,1.957c-8.367,5.802-13.649,13.876-14.644,24.249v0.108
			h-244.28"/>
	</g>
	<g id="tv_x2C_mp3" display="none">
		<g display="inline">
			<path fill="none" stroke="#3D967D" stroke-width="2" stroke-miterlimit="10" d="M469.51,500.318
				c0,10.731-9.752,19.434-21.776,19.434H330.223c-12.026,0-21.777-8.701-21.777-19.434v-67.207
				c0-10.733,9.751-19.434,21.777-19.434h117.51c12.024,0,21.776,8.699,21.776,19.434L469.51,500.318L469.51,500.318z"/>
			<path fill="none" stroke="#3D967D" stroke-width="2" stroke-miterlimit="10" d="M578.842,552.566
				c0,0.706-0.574,1.278-1.285,1.278h-49.721c-0.707,0-1.281-0.572-1.281-1.278v-86.998c0-0.705,0.574-1.277,1.281-1.277h49.721
				c0.711,0,1.285,0.572,1.285,1.277V552.566z"/>
			<circle fill="none" stroke="#3D967D" stroke-width="2" stroke-miterlimit="10" cx="552.697" cy="562.75" r="5.414"/>
			<g>
				
					<rect x="674.199" y="480.082" fill="none" stroke="#3D967D" stroke-width="2" stroke-miterlimit="10" width="45.83" height="37.238"/>
				<g>
					<path fill="none" stroke="#3D967D" stroke-width="2" stroke-miterlimit="10" d="M710.363,547.396
						c0,7.316-5.935,13.248-13.25,13.248c-7.314,0-13.248-5.932-13.248-13.248c0-7.315,5.934-13.247,13.248-13.247
						C704.43,534.148,710.363,540.08,710.363,547.396z"/>
					<circle fill="none" stroke="#3D967D" stroke-width="2" stroke-miterlimit="10" cx="697.114" cy="547.396" r="7.161"/>
				</g>
			</g>
			<path fill="none" stroke="#3D967D" stroke-width="2" stroke-miterlimit="10" d="M169.609,571.805l205.224-0.403v-4.906v-33.992
				h-72.918c-1.138,0-2.063-0.949-2.063-2.119V403.775c0-1.172,0.926-2.121,2.063-2.121h76.496l-16.094-43.777
				c-2.224,0.37-3.468-0.872-4.272-3.064c-0.911-2.48,0.361-5.23,2.841-6.143c2.48-0.912,5.23,0.359,6.144,2.84
				c0.807,2.192-0.099,4.592-2.031,5.749l16.321,44.396h15.316l16.322-44.396c-1.934-1.157-2.838-3.557-2.031-5.749
				c0.912-2.48,3.664-3.752,6.144-2.84s3.754,3.662,2.842,6.143c-0.805,2.192-2.049,3.435-4.273,3.064l-16.092,43.778h76.494
				c1.141,0,2.064,0.948,2.064,2.12v126.606c0,1.17-0.925,2.119-2.064,2.119h-72.916v33.275v5.623h125.584l1.791-1.433
				c-5.896,0-10.383-5.369-10.383-11.994V464.16c0-6.625,4.486-11.994,10.024-11.994h45.115c5.535,0,10.025,5.369,10.025,11.994
				v93.813c0,6.625-4.49,11.994-9.668,11.994h-1.789l0.955,1.836h98.287l1.489-2.565c-3.955,0-7.159-3.207-7.159-7.16v-83.273
				c0-3.955,3.204-7.162,7.159-7.162h45.115c3.955,0,7.16,3.207,7.16,7.162v83.273c0,3.953-3.205,7.16-7.16,7.16h-1.848l1.252,2.565
				h143.498"/>
		</g>
	</g>
	<g id="thoughtbubble" display="none">
		<path display="inline" fill="#3D967D" d="M496.868,422.553l18.894,19.692l3.008-3.016l-16.272-17.279l4.822,0.999l0.598-2.008
			l-4.014-3.818l-3.82-6.032c0,0-2.81-8.639-5.833-11.249c-3.009-2.617-7.432-8.244-11.249-9.852
			c-3.818-1.611-7.84-7.031-11.857-7.23c-4.02-0.207-8.238-0.207-10.852,0.598c-2.61,0.808-3.619,5.021-3.619,5.021
			c-5.828,2.414-7.033,2.62-7.033,2.62l7.643,3.017c0,0,0,8.232,0.399,10.446c0.397,2.214,6.631,10.25,9.442,12.46
			c3.215,3.416,7.835,7.037,7.835,7.037c-4.22,4.419-8.637,6.635-8.637,6.635s-2.012-0.205-3.021-0.809
			c-1-0.604-2.807,1.809-2.807,1.809s2.807-1.407,4.219,0c-2.215,0.603-3.414,0.396-4.421,1.406
			c-1.003,1.005-0.604,2.412-0.604,2.412s0.807-1.407,2.209-2.01c1.403-0.604,4.228-1.005,4.228-1.005l1.407-1.005l0.603,1.405
			c0,0,1.608,0.604,1.398,2.209c-0.191,1.609,0.807,2.015,1.207,0.206c0.403-1.812-0.997-3.42-0.997-3.42l7.829-7.231
			c1.61,0.999,5.631,1.603,5.631,1.603l-9.441,10.651c0,0-3.422,0.206-4.229,0.609c-0.802,0.395,3.422,0.797,3.422,0.797
			c-1.606,2.016-3.422,3.016-3.422,3.016v1.812c0,0,0.604-1.604,1.61-2.01c1.004-0.404,3.815-2.213,3.815-2.213l1.004-0.604
			l1.608,0.811c0,0,3.217,0,4.018,1.603c0.61-1.404-3.214-2.814-3.214-2.814l-1.405-0.601l8.247-11.056L496.868,422.553"/>
		<g display="inline">
			<path fill="#3D967D" d="M537.166,398.844c-4.119,0.057-6.945-5.926-3.648-10.82c3.298-4.894,8.709-10.071,20.009-10.071
				c11.297,0,16.711,6.491,18.123,10.071c1.411,3.58,3.297,9.881-2.334,16.021c-5.154,5.617-10.611,7.804-11.789,10.86
				c-1.177,3.062-1.988,5.771-5.818,5.886c-3.832,0.112-6.285-2.772-5.773-6.827c0.472-3.745,4.593-7.9,6.845-9.296
				c3.66-2.265,7.53-6.332,7.53-10.354c0-3.647-2.639-6.748-7.563-6.875c-4.539-0.119-7.457,2.896-8.635,6.19
				C542.936,396.924,541.285,398.789,537.166,398.844z"/>
			<circle fill="#3D967D" cx="552.669" cy="433.532" r="7.179"/>
		</g>
		<path display="inline" fill="none" stroke="#3D967D" stroke-width="2" stroke-miterlimit="10" d="M175.5,571.756h183.75
			l1.305-1.018c-3.061-2.704-4.985-6.634-4.985-11.006c0-8.153,6.7-14.766,14.966-14.766c1.598,0,3.138,0.247,4.582,0.705
			l-0.05-0.987c0-6.469,5.243-11.713,11.712-11.713c1.8,0,3.499,0.418,5.021,1.146c-1.027-2.452-1.6-5.145-1.6-7.969
			c0-11.228,8.98-20.339,20.147-20.587c-1.338-3.854,2.018-17.416,5.954-13.625c4.813,5.249-6.467,4.813-6.854,4.813
			c-28.671,0-51.913-17.063-51.913-38.108c0-23.854,34.997-40.5,34.997-37.135c-0.778,10.109-34.997-8.076-34.997-34.025
			c0-25.34,25.592-45.883,57.163-45.883c0.13,0,12.715,2.607,10.499,5.832c-2.14,3.111-4.74-0.572-8.516-5.47
			c-3.792-30.331,26.021-48.192,56.731-48.192c25.276,0,53.467,24.791,39.663,24.498c-9.028-0.19,8.945-24.498,35.387-24.498
			c21.689,0,39.273,13.58,39.273,30.332c0,4.11-6.806,19.539-9.849,11.666c3.918-6.416,22.603-8.166,32.015-8.166
			c24.815,0,45.149,17.131,45.149,35.385c0,6.162-5.981,30.441-10.311,20.857c-3.5-7.75,46.147,3.148,46.147,37.277
			c0,35.969-55.422,42.969-54.157,38.302c1.264-4.666,8.619,13.631,8.619,18.665c0,24.482-26.039,44.33-58.164,44.33
			c-12.537,0-46.646-13.708-34.498-15.555c12.149-1.849,6.436,23.494-37.064,29.647c-25.374,3.763-55.432-13.512-45.545-14.61
			c4.842,4.017-15.429,10.594-24.856,8.294c-7.973-1.944-9.573-4.083-13.026-6.319c-0.885,10.566-10.593,22.887-21.389,22.887
			c-4.722,0-9.059-1.604-12.533-4.274c0.136,0.714,0.214,1.448,0.214,2.203c0,6.469-5.244,11.712-11.712,11.712"/>
		<path display="inline" fill="none" stroke="#231F20" stroke-linecap="round" stroke-linejoin="round" stroke-miterlimit="10" d="
			M386.778,556.397l-1.693-0.134c0.271,1.112,0.415,2.273,0.415,3.469c0,4.077-1.675,7.77-4.384,10.441L380,571.756h479.5"/>
		<path display="inline" fill="none" stroke="#231F20" stroke-linecap="round" stroke-linejoin="round" stroke-miterlimit="10" d="
			M381.625,571.756"/>
		<path display="inline" fill="none" stroke="#231F20" stroke-linecap="round" stroke-linejoin="round" stroke-miterlimit="10" d="
			M360.125,571.756"/>
	</g>
	<g id="hand" display="none">
		<path display="inline" fill="none" stroke="#3D967D" stroke-width="2" stroke-miterlimit="10" d="M169.5,571.757h395.672
			c0,0,0-3-1-6s-8-24-12-32.5s-6.5-13.5-13-19s-10-9.25-17.75-10.75s-22-0.25-31-2s-21.5-7.25-29-10.75s-7.75-3.25-12.25-4.25
			s-17.25-5.75-23-8.75s-11.25-4-18.75-5.75s-17-2.75-24.25-7s-14.5-6-25.25-9.75s-11-8.25-12.75-10.75s2.75-8,5-11.25s2.5-4,1.25-5
			s-4-1.25-8.25-5.25s-2.75-23.75-1.5-31.5s7.75-15,11.25-17s3-5.75,3-5.75l2.25,0.25c0,0,0,0,2.5-3s2.306-2.208,7.75-4.25
			c2-0.75,4,3,4,3c2.75,3.5,3,18,1,31.5s0.436,15.229,2.75,16.994c2.061,1.569,5.25,1.756,5.25,1.756s1.75-3.75,4.75-5.25
			s7-0.875,9.625,4.375c2.574,5.147-1.693,10.212-4.875,10.875c-3,0.625-7.125-1.875-8.375-3.875s-2.875-4.875-6.125-6.375
			s-6.75-3-4.25-22.25s0-26.5-3.25-28.75s-6.75,6.25-6.75,6.25s1.5,0.75,2.25,1.5s-0.75,2-1.5,4.5s-1,6-1.25,11s0,23.5,0.75,28.75
			s-3.25,9.75-4.75,11s0.75,2.25,3.25,1.5s13.25,0.5,13.25,0.5c4,0.5,9.5,0.5,13.5,1.5s7.5,1.5,14,3.5s14.5,3.5,22.264,5.5
			c7.765,2,11.236,3,16.183,0c4.944-3,12.055-4.5,15.055-8s12-15.5,13-18.006s-0.5,1.506,1-4.494s-1-10-3.5-9.5s-5-2-8.044-2
			s-6.956,0-9.456-2.5s-1-7-1-5s-3,4.5-7.055,5.5c-4.056,1-4.945,3.833-8.945,0.5s6.875,2.405,8.945,5.5
			c1.397,2.093,1.805,4.75-1.556,7.5c-1.465,1.198,6.396-1.015,8.48-2.366c0.254-1.509,7.142-3.357,10.629-3.884
			c4.83-0.728,9.625,1.75,10.25,5.25c0.25,2.125-5.5,11.25-5.5,11.25s-10.453,7.331-11.064,7.951
			c-1.547,1.569-12.686,5.299-17.186,6.299s-6.5-2.5-10.236-6c-3.735-3.5-9.764-11.5-12.764-16.5s-7.5-15-12-18.5s-2-11-1-15
			s21-9.5,25.764-11.5c3.023-1.271,8.769-2.882,14.236-1.25c1.01,0.302-3.443-1.062-5.469-1.632
			c-1.485-0.417-2.87-0.801-4.031-1.118c-5.5-1.5-14-9.5-16.5-10s-5,1.5-10.5,2.5s-17,0-20.5,0.5
			c-2.251,0.321-9.463,3.95-15.521,6.634c-3.364,1.49-6.372,2.688-7.979,2.866c-4.5,0.5-3-0.5-11-1.5s-6.5-11.5-4.5-13s9.5-5,12-7
			s13.5-8,17.5-9.5s26-6,29.5-7s11.5-5,15.5-6s15.5,4,34,11.5s27.5,9.5,37,11s16.5,16.5,19,22s15.5,26.5,19,32.5s27,37.5,29.5,39.5
			c0.885,0.708,15.211,18.167,29.668,40c21.963,33.165,47.955,76.855,56.996,90.667l8.67,4.333H855.84"/>
	</g>
	<g id="Layer_6" display="none">
		<path display="inline" fill="none" stroke="#3D967D" stroke-width="2" stroke-miterlimit="10" d="M152.5,571.063h107.961
			c0,0-5.709-3.173-5.709-4.759s0-1.586,0-1.586l-13.743-2.114l-0.212-2.748c0,0-1.269-2.113-1.269-3.807s1.692-2.75,2.538-4.864
			c0.846-2.112,0.633-4.86,1.691-6.554c1.058-1.691,13.241-1.798,22.967-5.181c4.011-1.394,8.01-6.041,13.116-7.516
			c7.277-2.101,23.567-2.715,31.023-1.472c12.687,2.114,20.01,10.783,20.01,10.783s30.237,4.652,33.197,7.612
			s3.806,16.069,3.806,16.069l-19.454,1.69c0,0-1.903,4.229-4.439,4.44c-2.538,0.211,88.384,0.095,88.384,0.095l10.148,0.031
			c-5.074-1.301-4.743-11.481-4.743-11.481l-10.564-0.997v-19.764c0,0,3.879-3.794,6.898-4.791
			c3.019-0.998,4.099-19.965,14.015-21.361s32.456-1.992,34.527,0c2.07,1.994,12.07,16.567,13.797,19.165
			c1.725,2.595,14.875,2.195,18.108,7.386s0,19.764,0,19.764l-12.071,3.395c0,0-1.01,4.839-4.673,6.234
			c-3.664,1.397-2.75,2.452-2.75,2.452l76.199,0.085l2.996-0.738v-60.349h-7.137v-9.204c0,0-2.854-0.43-3.568-1.428
			c-0.713-0.998-0.961-2.266-2.14-2.854c-2.284-1.144-2.284-3.428-2.284-3.428h7.992v-7.491c0,0-2.854-0.429-3.568-1.429
			c-0.713-0.998-0.961-2.266-2.14-2.854c-2.284-1.143-2.284-3.426-2.284-3.426h7.992v-7.494c0,0-2.854-0.428-3.568-1.428
			c-0.713-0.999-0.961-2.265-2.14-2.854c-2.284-1.141-2.284-3.424-2.284-3.424h7.992v-2.07h18.271v2.07h7.992
			c0,0,0,2.283-2.283,3.424c-1.179,0.59-1.428,1.854-2.141,2.854c-0.713,1-3.568,1.428-3.568,1.428v7.494h7.992
			c0,0,0,2.283-2.283,3.426c-1.179,0.588-1.428,1.854-2.141,2.854c-0.713,1-3.568,1.429-3.568,1.429v7.491h7.992
			c0,0,0,2.284-2.283,3.428c-1.179,0.589-1.428,1.855-2.141,2.854s-3.568,1.428-3.568,1.428v9.204h-7.136v60.349l0.75,0.738H681
			c0,0-1.033-0.527-2.302-2.511c-1.27-1.98-1.349-2.458-1.349-2.458l-8.008-0.315c0,0-8.271-12.055-8.061-14.38
			c0.21-2.324-0.212-8.149,1.69-11.476c1.902-3.325,14.377-8.823,14.377-8.823s12.477-9.938,15.015-10.995
			c2.537-1.057,40.384-3.172,45.248-1.269c4.864,1.902,16.917,11.842,20.511,13.532c3.594,1.691,29.813,8.248,32.14,9.093
			s8.881,9.726,10.149,11.841c1.269,2.114-1.059,7.61,0,8.669c1.059,1.06-8.563,3.647-8.563,3.647s-2.061,5.443-4.438,5.443
			c-2.38,0,81.091,0,81.091,0"/>
	</g>
	<g id="tired" display="none">
		<g display="inline">
			<path fill="#3D967D" d="M412.09,369.521c-0.916,0.67-1.89,1.268-2.918,1.777c-0.515,0.254-1.045,0.483-1.589,0.697
				c-0.534,0.197-1.208,0.335-1.798,0.372c-1.223,0.077-2.32-0.063-3.422-0.062c-1.101-0.009-2.194,0.006-3.292,0.078l-0.824,0.063
				l-0.812,0.09c-0.557,0.062-1.016,0.134-1.528,0.259c-1.007,0.225-1.884,0.645-2.78,1.207c-0.895,0.553-1.845,1.247-2.859,1.832
				c-0.501,0.303-1.03,0.568-1.563,0.813c-0.53,0.254-1.074,0.463-1.614,0.683l0.536-0.705c-0.011,0.021,0.006,0.211,0.037,0.267
				c0.033,0.078,0.064,0.125,0.151,0.188c0.076,0.067,0.239,0.106,0.409,0.142c0.187,0.021,0.39,0.029,0.608,0.01
				c0.23-0.015,0.414-0.053,0.704-0.096l0.76-0.117c0.505-0.068,1.077-0.11,1.588-0.142c1.045-0.063,2.046-0.051,3.045-0.178
				c0.247-0.039,0.504-0.042,0.75-0.097l0.748-0.138c0.499-0.1,0.992-0.239,1.496-0.36l-0.684,0.363
				c-0.231,0.116-0.455,0.26-0.7,0.346c-0.482,0.195-0.966,0.406-1.474,0.541c-1.008,0.305-2.055,0.482-3.042,0.66
				c-0.505,0.1-0.951,0.188-1.45,0.323l-0.745,0.195c-0.212,0.051-0.527,0.146-0.806,0.187c-0.289,0.053-0.6,0.078-0.926,0.071
				c-0.335-0.028-0.69-0.067-1.062-0.26c-0.365-0.173-0.716-0.5-0.905-0.888c-0.188-0.406-0.271-0.735-0.243-1.227l0.027-0.462
				l0.509-0.243c0.49-0.234,0.985-0.457,1.457-0.719c0.479-0.25,0.938-0.528,1.398-0.809c0.927-0.558,1.784-1.213,2.79-1.865
				c0.994-0.657,2.202-1.172,3.399-1.418c0.582-0.135,1.24-0.221,1.803-0.271l0.871-0.046l0.862-0.016
				c1.151-0.006,2.312,0.019,3.458,0.156c1.146,0.117,2.281,0.334,3.312,0.418c0.536,0.029,0.985,0.008,1.532-0.109
				c0.533-0.114,1.069-0.244,1.603-0.404C409.973,370.311,411.036,369.941,412.09,369.521z"/>
		</g>
		<g display="inline">
			<path fill="#3D967D" d="M339.13,396.337c-0.006-0.006,0.025,0.181,0.277,0.277c0.236,0.118,0.649,0.089,1.143,0.032
				c0.251-0.055,0.526-0.102,0.823-0.176c0.296-0.087,0.616-0.18,0.958-0.279c0.598-0.262,1.475-0.547,2.114-0.996
				c0.354-0.185,0.704-0.463,1.064-0.748c0.367-0.264,0.728-0.594,1.098-0.922c0.738-0.664,1.509-1.437,2.379-2.183
				c0.449-0.362,0.91-0.737,1.39-1.101c0.508-0.334,1.008-0.684,1.555-0.995c0.516-0.282,1.034-0.565,1.556-0.853
				c0.557-0.27,1.1-0.563,1.675-0.813c1.143-0.49,2.41-0.888,3.729-0.994c1.334-0.132,2.568,0.205,3.67,0.435
				c0.271,0.064,0.56,0.133,0.872,0.231c0.16,0.054,0.317,0.103,0.533,0.22c0.057,0.033,0.098,0.053,0.162,0.1
				c0.072,0.054,0.141,0.111,0.205,0.175c0.051,0.036,0.164,0.198,0.219,0.325c0.067,0.127,0.097,0.281,0.088,0.459
				c-0.005,0.184-0.052,0.328-0.096,0.4c-0.046,0.094-0.102,0.184-0.162,0.266c-0.089,0.096-0.177,0.175-0.27,0.256
				c-0.152,0.104-0.313,0.216-0.445,0.273c-0.279,0.148-0.536,0.248-0.792,0.354c-0.958,0.357-1.863,0.697-2.699,1.01
				c-0.804,0.357-1.54,0.686-2.192,0.977c-0.662,0.31-1.25,0.557-1.75,0.732c-0.99,0.367-1.557,0.557-1.557,0.557
				s0.499-0.344,1.374-0.91c0.892-0.549,2.052-1.439,3.65-2.4c0.793-0.438,1.638-0.891,2.574-1.33
				c0.208-0.109,0.426-0.223,0.6-0.341c0.104-0.06,0.148-0.115,0.215-0.162c0.001-0.013,0.011-0.024,0.017-0.022
				c-0.027,0.022-0.051,0.056-0.063,0.09c0,0.018-0.041,0.097-0.049,0.212c0,0.108,0.029,0.196,0.05,0.268
				c0.018,0.071,0.115,0.161,0.104,0.162c0.012,0.021,0.028,0.035,0.048,0.047c0.01,0.007-0.014,0-0.018,0
				c-0.022-0.011-0.128-0.047-0.23-0.069c-0.214-0.056-0.468-0.102-0.744-0.148c-1.083-0.178-2.143-0.346-3.158-0.232
				c-1.02,0.104-2.05,0.438-3.086,0.901c-0.52,0.215-1.032,0.479-1.548,0.715c-0.525,0.274-1.049,0.548-1.568,0.819
				c-0.476,0.277-0.947,0.554-1.415,0.826c-0.455,0.304-0.896,0.621-1.335,0.935c-0.854,0.672-1.694,1.34-2.544,1.97
				c-0.431,0.308-0.83,0.625-1.285,0.867c-0.436,0.258-0.854,0.508-1.322,0.68c-0.919,0.445-1.659,0.524-2.438,0.709
				c-0.371,0.037-0.718,0.071-1.039,0.104c-0.325,0.014-0.627,0.002-0.894,0.003c-0.542-0.043-0.977-0.142-1.215-0.337
				C339.101,396.521,339.128,396.325,339.13,396.337z"/>
		</g>
		<path display="inline" fill="none" stroke="#3D967D" stroke-width="2" stroke-miterlimit="10" d="M167.5,571.188h127.923
			c0,0-14.666-20.666-14.666-24.666s0-4,0-4s-2.667-16,3.333-34.668c6-18.666,25.333-80,26-94.667
			c0.667-14.666-3.333-22.666-9.333-29.332c-6-6.668-10.668-10.668-9.334-12.668s-5.333-4-2.666-7.332
			c2.666-3.334,1.999-8.666,10.666-17.334c8.667-8.666,12-11.334,15.334-12.666c3.333-1.334,4-3.334,5.333,0
			c1.333,3.332-1.334,8-2.667,12s-4.666,10-1.333,14.666c0.903,1.267,2.104,2.974,3.437,4.869
			c3.582,5.094,4.136,13.383,6.563,16.297c1.468,1.763,7.065,1.983,8.083,5.168c1.344,4.205,4.75,6.766,4.75,9.75
			c0,1.441-0.25,4.596-0.25,8.25c0,9.861,1.417,25.523,1.417,32.333c0,9.334,6.667,79.334,8,84.666c1.333,5.334,0-38.666,0-43.332
			c0-4.668-2.667-8,4-7.335c6.667,0.667,7.333,8.001,13.333,3.335c6-4.668,7.167-9.668,8.5-11.668
			c0.26-0.391,6.66-0.984,4.334-2.166c-3.181-1.614-11.875-8.933-16.167-14.834c-5.333-7.332-23.26-33.04-22.167-43.833
			c0.813-8.024-3.139-12.35-5.5-18.272c-0.598-1.5-6.334-3.81-7-5.228c-4.771-10.164-8.254-16.184-9.25-20.166
			c-2.667-10.668,1.917-22.5,4.584-31.168c2.666-8.666,3.999-6.666,18.666-17.332s19.333-14,28-12.668
			c8.667,1.334,11.333-0.557,18-0.277s13.334,2.277,19.334,4.945c6,2.666,14.666,8,19.333,12.666c4.667,4.668,12,28,14.667,34.666
			c2.666,6.668,0,7.334,0,11.334s-2.667,12.666-2.667,12.666s0.667-14,6.667-13.332c6,0.666,10.666,10.666,10,18.666
			c-0.667,8-0.783,17.906-4,22c-4.584,5.834-10,2.666-10,2.666s11.666,30.791,14.063,43.335c1.145,5.989-0.604-3.334,0-8
			c0.604-4.668-2.101-16.666,1.919-14c4.019,2.666,4.685,7.691,12.685,7.846s6,3.18,14.667,0s14.667-2.514,18.667-3.18s6.666-4,10-4
			c3.333,0,7.333,2.666,10,4c2.666,1.334,4.666,3.692,14,3.18c9.333-0.514,7.333-5.18,17.333-5.18s12.667,2.358,16.667,5.18
			c4,2.82,4.666,9.488,4.666,12.154c0,2.665,4.666,2.666,12,6c7.334,3.332,20.667,6.665,24.667,12.666c4,6,12,10.666,18,12.666
			s45.334,17.334,58.667,21.334s23.334,6.666,34,10.666s20.667,14.002,26,16.668s8.666,8.666,10.666,12.666s2,18.668,0,23.334
			s-11.333,10.666-11.333,10.666H867.5"/>
		<path display="inline" fill="none" stroke="#3D967D" stroke-width="2" stroke-miterlimit="10" d="M408.423,423.522
			c-4.666,2-9.334,1.666-13,3.666s-4,3.666-8.666,4.666c-4.667,1-8.667,0.36-10.667,2.182c-2,1.818-5.333,0-5.333,0
			s2.666-0.514,6-3.182c3.333-2.666,2.999-4.001,6.666-5.332c3.667-1.335,0.334-2,6.167-2s5.499,0.665,9.833,0
			C403.757,422.855,408.423,423.522,408.423,423.522z"/>
		<path display="inline" fill="none" stroke="#3D967D" stroke-width="2" stroke-miterlimit="10" d="M366.358,383.749
			c1.667,3.333,2.563,11.481,1.563,15.481c0,0-0.625,6.375-1.109,9.365c2.701,2.703,3.609,3.342,6.609,4.01c3,0.666,5.667,0,5.667,0
			"/>
	</g>
</g>
<g id="hand_1_">
</g>
<g id="Layer_6_1_">
	<path fill="none" stroke="#3D967D" stroke-width="2" stroke-miterlimit="10" d="M2.5,402.973h83.461c0,0-5.709-3.172-5.709-4.758
		s0-1.586,0-1.586l-13.743-2.115l-0.212-2.748c0,0-1.269-2.113-1.269-3.805c0-1.693,1.692-2.75,2.538-4.865
		c0.846-2.113,0.633-4.861,1.691-6.553c1.058-1.693,13.241-1.799,22.967-5.182c4.011-1.393,8.01-6.041,13.115-7.514
		c7.277-2.102,23.567-2.715,31.023-1.473c12.687,2.115,20.01,10.783,20.01,10.783s30.237,4.652,33.197,7.613
		c2.96,2.959,3.807,16.07,3.807,16.07l-19.454,1.689c0,0-1.903,4.23-4.44,4.441s88.385,0.094,88.385,0.094l10.148,0.033
		c-5.074-1.301-4.743-11.482-4.743-11.482l-10.564-0.998v-19.764c0,0,3.879-3.793,6.898-4.791s4.099-19.963,14.015-21.361
		c9.916-1.395,32.455-1.992,34.527,0c2.071,1.994,12.07,16.568,13.797,19.166c1.725,2.594,14.875,2.195,18.109,7.385
		c3.233,5.191,0,19.764,0,19.764l-12.072,3.395c0,0-1.009,4.838-4.672,6.234c-3.665,1.398-2.75,2.453-2.75,2.453l76.199,0.084
		l2.996-0.738v-60.348h-7.137v-9.205c0,0-2.854-0.43-3.568-1.428c-0.713-0.998-0.961-2.266-2.14-2.854
		c-2.284-1.143-2.284-3.428-2.284-3.428h7.992v-7.492c0,0-2.854-0.428-3.568-1.428c-0.713-0.998-0.961-2.266-2.14-2.854
		c-2.284-1.141-2.284-3.426-2.284-3.426h7.992v-7.494c0,0-2.854-0.426-3.568-1.426c-0.713-1-0.961-2.266-2.14-2.855
		c-2.284-1.141-2.284-3.424-2.284-3.424h7.992v-2.07h18.271v2.07h7.992c0,0,0,2.283-2.283,3.424
		c-1.179,0.59-1.428,1.855-2.141,2.855s-3.568,1.426-3.568,1.426v7.494h7.992c0,0,0,2.285-2.283,3.426
		c-1.179,0.588-1.428,1.855-2.141,2.854c-0.713,1-3.568,1.428-3.568,1.428v7.492h7.992c0,0,0,2.285-2.283,3.428
		c-1.179,0.588-1.428,1.855-2.141,2.854s-3.568,1.428-3.568,1.428v9.205h-7.136v60.348l0.75,0.738H506.5c0,0-1.033-0.527-2.302-2.51
		s-1.348-2.459-1.348-2.459l-8.008-0.316c0,0-8.271-12.053-8.061-14.379c0.211-2.324-0.212-8.15,1.691-11.475
		c1.902-3.326,14.377-8.824,14.377-8.824s12.476-9.938,15.014-10.994c2.537-1.057,40.384-3.172,45.248-1.27
		c4.865,1.902,16.917,11.842,20.511,13.533s29.813,8.248,32.14,9.092c2.327,0.846,8.881,9.727,10.149,11.842
		c1.269,2.113-1.058,7.609,0,8.668c1.059,1.059-8.563,3.648-8.563,3.648s-2.061,5.443-4.439,5.443c-2.38,0,55.091,0,55.091,0"/>
</g>
</svg>
